<svg width="128" height="128" viewBox="0 0 128 128" fill="none" xmlns="http://www.w3.org/2000/svg">
  <rect width="128" height="128" rx="32" fill="#F8F7FC"/>
  <circle cx="64" cy="44" r="20" fill="#D9D2F4"/>
  <path d="M44 54V82C44 95.2548 54.7452 106 68 106H72C85.2548 106 96 95.2548 96 82V54C96 29.6995 76.3005 10 52 10C27.6995 10 8 29.6995 8 54V82C8 95.2548 18.7452 106 32 106H36" stroke="#5D3B87" stroke-width="3.5" stroke-linecap="round" stroke-linejoin="round"/>
  <path d="M40 65C47.7745 69.0781 56.5239 71.2074 66 71.2074C75.4761 71.2074 84.2255 69.0781 92 65" stroke="#5D3B87" stroke-width="3.5" stroke-linecap="round"/>
  <path d="M64 25C58.5 31.5 58.5 40 64 48C69.5 40 69.5 31.5 64 25Z" stroke="#5D3B87" stroke-width="3.5" stroke-linejoin="round"/>
  <path d="M36 106C26.0589 106 18 97.9411 18 88V57" stroke="#5D3B87" stroke-width="3.5" stroke-linecap="round"/>
  <path d="M47 59V83C47 93.4934 55.5066 102 66 102C76.4934 102 85 93.4934 85 83V59" stroke="#5D3B87" stroke-width="3.5" stroke-linecap="round" stroke-linejoin="round"/>
</svg>
